<mxfile host="app.diagrams.net" modified="2023-09-21T20:38:14.203Z" agent="Mozilla/5.0 (Windows NT 10.0; Win64; x64) AppleWebKit/537.36 (KHTML, like Gecko) Chrome/116.0.0.0 Safari/537.36" version="21.8.0" etag="qGwN7AeTIurGavnQHzyN" type="github">
  <diagram name="PÃ¡gina-1" id="k3eknsYhivP-Da45ceIv">
    <mxGraphModel>
      <root>
        <mxCell id="0" />
        <mxCell id="1" parent="0" />
      </root>
    </mxGraphModel>
  </diagram>
</mxfile>
